<svg width="32" height="32" viewBox="0 0 32 32" fill="none" xmlns="http://www.w3.org/2000/svg">
<rect width="32" height="32" rx="4" fill="white"/>
<path d="M10.6529 23V8.45455H16.4767C17.5468 8.45455 18.4393 8.61316 19.1543 8.9304C19.8693 9.24763 20.4067 9.68797 20.7665 10.2514C21.1264 10.8101 21.3063 11.4541 21.3063 12.1832C21.3063 12.7514 21.1926 13.2509 20.9654 13.6818C20.7381 14.108 20.4256 14.4583 20.0279 14.733C19.6349 15.0028 19.1851 15.1946 18.6784 15.3082V15.4503C19.2324 15.474 19.7509 15.6302 20.2338 15.919C20.7215 16.2079 21.1169 16.6127 21.4199 17.1335C21.723 17.6496 21.8745 18.2652 21.8745 18.9801C21.8745 19.7519 21.6827 20.4408 21.2992 21.0469C20.9204 21.6482 20.3593 22.1241 19.6159 22.4744C18.8726 22.8248 17.9564 23 16.8674 23H10.6529ZM13.7282 20.4858H16.2353C17.0923 20.4858 17.7173 20.3224 18.1103 19.9957C18.5033 19.6643 18.6998 19.224 18.6998 18.6747C18.6998 18.2723 18.6027 17.9171 18.4086 17.6094C18.2144 17.3016 17.9374 17.0601 17.5776 16.8849C17.2225 16.7098 16.7987 16.6222 16.3063 16.6222H13.7282V20.4858ZM13.7282 14.5412H16.008C16.4294 14.5412 16.8034 14.4678 17.1301 14.321C17.4616 14.1695 17.722 13.9564 17.9114 13.6818C18.1055 13.4072 18.2026 13.0781 18.2026 12.6946C18.2026 12.169 18.0156 11.7453 17.6415 11.4233C17.2722 11.1013 16.7466 10.9403 16.0648 10.9403H13.7282V14.5412Z" fill="black"/>
</svg>
